<svg id="svg" xmlns="http://www.w3.org/2000/svg" xmlns:xlink="http://www.w3.org/1999/xlink" width="400" height="526.4197530864197" viewBox="0, 0, 400,526.4197530864197"><g id="svgg"><path id="path0" d="M190.284 31.988 C 189.670 33.081,188.950 34.213,188.684 34.504 C 187.967 35.288,187.208 36.507,186.942 37.300 C 186.812 37.685,186.569 38.000,186.400 38.000 C 186.231 38.000,185.984 38.315,185.849 38.700 C 185.715 39.085,185.068 40.210,184.411 41.200 C 183.754 42.190,183.035 43.410,182.814 43.911 C 182.592 44.412,181.629 45.672,180.674 46.711 C 179.146 48.371,177.229 50.874,174.087 55.311 C 173.584 56.020,172.954 56.870,172.687 57.200 C 172.419 57.530,170.850 59.665,169.200 61.944 C 167.550 64.224,165.750 66.696,165.200 67.438 C 164.650 68.179,162.421 71.230,160.247 74.218 C 158.073 77.205,156.077 79.866,155.812 80.131 C 155.547 80.396,154.896 81.270,154.365 82.074 C 152.528 84.855,147.584 91.515,146.993 92.005 C 146.667 92.276,146.400 92.724,146.400 93.000 C 146.400 93.276,146.129 93.727,145.798 94.002 C 145.467 94.277,143.262 97.184,140.898 100.464 C 138.534 103.743,136.150 107.030,135.600 107.769 C 132.556 111.855,128.482 117.384,127.687 118.509 C 127.184 119.219,126.554 120.070,126.286 120.400 C 126.017 120.730,125.082 121.990,124.207 123.200 C 123.332 124.410,122.388 125.638,122.108 125.929 C 121.701 126.352,121.601 140.521,121.605 197.129 C 121.611 267.471,121.614 267.795,122.397 266.800 C 123.504 265.392,125.572 262.587,128.668 258.292 C 130.132 256.262,131.480 254.540,131.665 254.467 C 131.849 254.393,132.003 254.123,132.008 253.867 C 132.012 253.610,132.642 252.682,133.408 251.804 C 134.173 250.927,134.800 250.085,134.800 249.933 C 134.800 249.781,135.034 249.419,135.320 249.129 C 135.606 248.838,136.630 247.520,137.595 246.200 C 138.560 244.880,139.496 243.740,139.675 243.667 C 139.854 243.593,140.000 243.321,140.000 243.063 C 140.000 242.804,140.426 242.132,140.947 241.571 C 141.468 241.009,142.323 239.901,142.847 239.108 C 144.246 236.991,149.399 229.954,150.366 228.839 C 150.825 228.310,151.200 227.770,151.201 227.639 C 151.201 227.507,151.741 226.770,152.400 226.000 C 153.059 225.230,153.599 224.478,153.599 224.329 C 153.600 224.179,153.829 223.819,154.108 223.529 C 154.388 223.238,155.318 222.010,156.176 220.800 C 157.033 219.590,157.929 218.420,158.167 218.200 C 158.405 217.980,158.832 217.350,159.116 216.800 C 159.399 216.250,160.164 215.191,160.816 214.446 C 161.467 213.701,162.000 212.970,162.000 212.821 C 162.000 212.673,162.331 212.196,162.735 211.762 C 163.140 211.327,164.703 209.268,166.209 207.186 C 167.714 205.104,169.139 203.181,169.373 202.912 C 169.608 202.644,170.430 201.495,171.200 200.358 C 173.523 196.929,175.280 195.085,175.658 195.680 C 175.839 195.966,175.991 211.464,175.994 230.120 C 176.000 265.441,175.996 265.551,174.439 266.800 C 174.302 266.910,172.769 268.980,171.032 271.400 C 169.296 273.820,167.723 275.860,167.537 275.933 C 167.352 276.007,167.197 276.277,167.192 276.533 C 167.188 276.790,166.558 277.718,165.792 278.596 C 165.027 279.473,164.400 280.315,164.400 280.467 C 164.400 280.619,164.171 280.981,163.891 281.271 C 163.610 281.562,162.139 283.510,160.620 285.600 C 159.102 287.690,157.739 289.490,157.590 289.600 C 157.442 289.710,156.889 290.463,156.360 291.274 C 154.623 293.940,149.082 301.397,148.737 301.533 C 148.552 301.607,148.397 301.877,148.392 302.133 C 148.388 302.390,147.758 303.318,146.992 304.196 C 146.227 305.073,145.600 305.901,145.600 306.034 C 145.600 306.168,145.254 306.676,144.832 307.163 C 144.409 307.650,143.389 309.028,142.565 310.224 C 141.741 311.421,140.938 312.400,140.780 312.400 C 140.622 312.400,140.394 312.779,140.273 313.242 C 140.152 313.706,139.817 314.006,139.526 313.909 C 139.097 313.766,139.000 308.135,139.000 283.467 C 139.000 266.820,138.942 253.200,138.871 253.200 C 138.533 253.200,137.578 254.456,135.979 257.006 C 135.015 258.543,134.085 259.860,133.913 259.933 C 133.741 260.007,133.600 260.234,133.600 260.438 C 133.600 260.894,130.340 265.748,129.910 265.933 C 129.739 266.007,129.600 266.260,129.600 266.496 C 129.600 266.731,129.150 267.514,128.600 268.236 C 128.050 268.957,127.600 269.631,127.600 269.735 C 127.600 269.838,126.364 271.785,124.853 274.061 L 122.106 278.200 121.881 323.500 C 121.757 348.415,121.784 368.800,121.942 368.800 C 122.099 368.800,122.528 368.305,122.894 367.700 C 123.261 367.095,124.110 365.970,124.780 365.200 C 125.450 364.430,125.999 363.693,125.999 363.561 C 126.000 363.430,126.346 362.924,126.768 362.437 C 127.191 361.950,128.211 360.572,129.035 359.376 C 129.859 358.179,130.683 357.200,130.866 357.200 C 131.050 357.200,131.200 357.023,131.200 356.807 C 131.200 356.472,134.140 352.384,138.829 346.200 C 140.823 343.570,145.349 337.472,146.102 336.399 C 146.488 335.850,148.232 333.510,149.978 331.200 C 151.723 328.890,154.459 325.200,156.057 323.000 C 157.656 320.800,159.197 318.762,159.482 318.471 C 159.767 318.181,160.000 317.810,160.000 317.647 C 160.000 317.484,160.323 317.002,160.718 316.575 C 161.112 316.149,162.228 314.720,163.197 313.400 C 164.167 312.080,165.194 310.762,165.480 310.471 C 165.766 310.181,166.000 309.810,166.000 309.647 C 166.000 309.484,166.318 309.002,166.707 308.575 C 167.096 308.149,168.663 306.090,170.188 304.000 C 171.714 301.910,173.285 299.851,173.681 299.425 C 174.076 298.998,174.400 298.516,174.400 298.353 C 174.400 298.190,174.634 297.819,174.920 297.529 C 175.206 297.238,176.232 295.920,177.200 294.600 C 178.168 293.280,179.194 291.962,179.480 291.671 C 179.766 291.381,180.000 291.010,180.000 290.847 C 180.000 290.684,180.322 290.202,180.716 289.775 C 181.367 289.070,183.125 286.690,189.414 278.000 C 190.609 276.350,191.766 274.785,191.987 274.523 C 192.405 274.027,192.647 138.914,192.231 138.498 C 192.114 138.381,191.898 138.626,191.750 139.043 C 191.462 139.853,189.660 142.463,187.959 144.533 C 187.387 145.230,186.487 146.462,185.959 147.271 C 184.508 149.496,177.171 159.572,176.547 160.196 C 176.246 160.497,176.000 160.893,176.000 161.076 C 176.000 161.258,175.582 161.859,175.070 162.411 C 174.559 162.962,173.796 163.950,173.374 164.607 C 172.660 165.719,170.408 168.875,169.659 169.814 C 169.478 170.042,168.101 171.932,166.601 174.014 C 165.100 176.096,163.766 177.890,163.635 178.000 C 163.505 178.110,163.157 178.671,162.861 179.246 C 162.565 179.821,161.934 180.721,161.458 181.246 C 160.982 181.771,160.267 182.707,159.870 183.326 C 159.472 183.946,158.895 184.756,158.587 185.126 C 158.279 185.497,157.616 186.381,157.113 187.091 C 156.611 187.800,153.770 191.740,150.800 195.845 C 147.830 199.949,144.902 204.014,144.293 204.878 C 143.685 205.741,142.830 206.831,142.393 207.299 C 141.957 207.768,141.600 208.269,141.600 208.413 C 141.600 208.949,139.745 210.812,139.478 210.544 C 139.020 210.086,139.141 134.000,139.600 134.000 C 139.820 134.000,140.000 133.808,140.000 133.573 C 140.000 133.165,141.648 130.783,142.700 129.671 C 142.975 129.381,143.200 129.021,143.201 128.871 C 143.201 128.722,143.741 127.970,144.400 127.200 C 145.059 126.430,145.599 125.678,145.599 125.529 C 145.600 125.379,145.834 125.019,146.120 124.729 C 146.406 124.438,147.430 123.120,148.395 121.800 C 149.360 120.480,150.296 119.340,150.475 119.267 C 150.654 119.193,150.800 118.921,150.800 118.663 C 150.800 118.404,151.226 117.732,151.747 117.171 C 152.268 116.609,153.123 115.504,153.647 114.716 C 155.134 112.479,160.877 104.666,161.469 104.074 C 161.761 103.782,162.000 103.410,162.000 103.247 C 162.000 103.084,162.318 102.602,162.707 102.175 C 163.096 101.749,164.659 99.690,166.180 97.600 C 167.701 95.510,169.092 93.740,169.273 93.667 C 169.453 93.593,169.600 93.342,169.600 93.108 C 169.600 92.874,170.192 91.944,170.914 91.041 C 171.637 90.139,172.549 88.893,172.941 88.274 C 174.008 86.586,174.924 85.600,175.427 85.600 C 175.749 85.600,175.949 91.100,176.135 105.100 C 176.555 136.735,176.902 150.800,177.262 150.800 C 177.448 150.800,177.600 150.462,177.600 150.049 C 177.600 149.636,177.845 149.094,178.145 148.845 C 178.445 148.596,179.378 147.269,180.218 145.896 C 181.059 144.523,181.866 143.310,182.012 143.200 C 182.159 143.090,183.063 141.740,184.021 140.200 C 184.980 138.660,185.880 137.310,186.021 137.200 C 186.163 137.090,187.063 135.740,188.021 134.200 C 188.980 132.660,189.878 131.310,190.016 131.200 C 190.155 131.090,190.956 129.920,191.797 128.600 L 193.325 126.200 193.061 99.200 C 192.332 24.568,192.477 28.083,190.284 31.988 M202.941 112.700 C 203.070 158.185,203.337 257.906,203.534 334.302 L 203.893 473.203 205.047 474.896 C 206.039 476.353,208.626 479.877,211.889 484.217 C 212.378 484.868,214.051 487.110,215.607 489.200 C 217.162 491.290,218.990 493.720,219.669 494.600 L 220.902 496.200 220.652 439.000 C 220.514 407.540,220.282 362.344,220.136 338.563 C 219.942 306.957,219.991 295.253,220.317 295.051 C 220.576 294.891,221.449 295.658,222.406 296.888 C 223.310 298.050,224.296 299.303,224.598 299.674 C 224.900 300.044,225.470 300.854,225.864 301.474 C 226.259 302.093,226.689 302.690,226.821 302.800 C 226.952 302.910,228.303 304.710,229.823 306.800 C 231.342 308.890,232.904 310.949,233.293 311.375 C 233.682 311.802,234.000 312.284,234.000 312.447 C 234.000 312.610,234.233 312.981,234.518 313.271 C 235.199 313.966,239.601 319.883,240.514 321.332 C 240.906 321.955,241.671 322.943,242.214 323.528 C 242.756 324.113,243.200 324.804,243.200 325.063 C 243.200 325.321,243.346 325.593,243.525 325.667 C 243.704 325.740,244.640 326.880,245.605 328.200 C 246.570 329.520,247.594 330.838,247.880 331.129 C 248.166 331.419,248.400 331.781,248.400 331.933 C 248.400 332.085,249.027 332.927,249.792 333.804 C 250.558 334.682,251.188 335.610,251.192 335.867 C 251.197 336.123,251.346 336.393,251.525 336.467 C 251.704 336.540,252.640 337.680,253.605 339.000 C 254.570 340.320,255.595 341.639,255.883 341.931 C 256.170 342.223,256.598 342.823,256.834 343.263 C 257.069 343.703,257.509 344.364,257.811 344.732 C 258.775 345.905,264.571 353.783,265.370 355.008 C 265.794 355.656,266.559 356.638,267.070 357.189 C 267.582 357.741,268.000 358.342,268.000 358.524 C 268.000 358.707,268.271 359.128,268.601 359.458 C 268.932 359.789,270.382 361.752,271.825 363.821 C 273.267 365.889,274.629 367.695,274.852 367.832 C 275.335 368.131,275.061 284.573,274.462 249.200 C 273.357 183.855,273.120 160.919,273.325 139.333 L 273.550 115.666 272.543 114.533 C 271.989 113.910,270.786 112.410,269.870 111.200 C 268.954 109.990,268.111 108.910,267.997 108.800 C 267.882 108.690,266.984 107.610,266.000 106.400 C 265.016 105.190,264.110 104.110,263.987 104.000 C 263.864 103.890,262.913 102.685,261.875 101.323 C 260.837 99.960,259.763 98.610,259.488 98.323 C 259.213 98.035,258.366 96.990,257.605 96.000 C 256.843 95.010,256.110 94.110,255.974 94.000 C 255.839 93.890,253.858 91.460,251.573 88.600 C 249.289 85.740,247.111 83.040,246.735 82.600 C 245.964 81.699,244.331 79.650,241.419 75.930 C 240.329 74.539,239.329 73.310,239.196 73.200 C 238.855 72.918,233.884 66.773,233.182 65.766 C 232.862 65.307,231.849 64.047,230.931 62.966 C 230.014 61.885,228.548 60.100,227.674 59.000 C 226.800 57.900,224.718 55.290,223.047 53.200 C 221.376 51.110,219.872 49.216,219.705 48.992 C 219.537 48.768,218.770 47.857,218.000 46.967 C 217.230 46.078,216.060 44.655,215.400 43.804 C 214.740 42.954,214.013 42.065,213.786 41.829 C 213.558 41.593,212.838 40.680,212.186 39.800 C 211.533 38.920,210.802 38.020,210.559 37.800 C 210.316 37.580,209.123 36.140,207.908 34.600 C 204.679 30.509,204.180 30.000,203.407 30.000 C 202.743 30.000,202.720 34.159,202.941 112.700 M225.804 87.200 C 226.953 88.630,228.292 90.157,228.780 90.593 C 229.269 91.029,230.328 92.289,231.133 93.393 C 231.939 94.497,233.049 95.855,233.599 96.412 C 234.150 96.969,236.310 99.460,238.400 101.948 C 243.550 108.078,243.516 108.039,244.735 109.400 C 245.326 110.060,246.215 111.123,246.711 111.763 C 247.461 112.729,250.679 116.489,252.200 118.176 C 252.595 118.614,255.247 121.886,256.404 123.361 C 256.921 124.022,257.036 130.382,257.269 171.361 C 257.416 197.343,257.666 239.435,257.824 264.900 C 258.135 315.173,258.206 313.361,256.059 309.900 C 255.616 309.185,254.912 308.235,254.495 307.790 C 254.077 307.344,253.390 306.444,252.968 305.790 C 252.546 305.136,251.895 304.240,251.523 303.800 C 250.582 302.689,248.922 300.472,245.534 295.800 C 243.938 293.600,242.220 291.352,241.716 290.804 C 241.212 290.256,240.800 289.596,240.800 289.337 C 240.800 289.079,240.654 288.807,240.476 288.733 C 240.299 288.660,239.354 287.520,238.376 286.200 C 237.399 284.880,236.285 283.451,235.900 283.025 C 235.515 282.598,235.200 282.116,235.200 281.953 C 235.200 281.790,234.966 281.419,234.680 281.129 C 234.394 280.838,233.367 279.520,232.397 278.200 C 231.428 276.880,230.312 275.451,229.918 275.025 C 229.523 274.598,229.200 274.116,229.200 273.953 C 229.200 273.790,228.966 273.419,228.680 273.129 C 227.977 272.414,224.827 268.239,223.640 266.449 C 223.111 265.652,222.562 264.910,222.418 264.800 C 222.275 264.690,221.693 263.970,221.126 263.200 L 220.093 261.800 219.846 201.600 C 219.710 168.490,219.484 127.961,219.343 111.536 C 219.202 95.111,219.213 81.343,219.367 80.941 C 219.680 80.125,221.702 82.091,225.804 87.200 " stroke="none" fill="#18212b" fill-rule="evenodd"></path></g></svg>