<?xml version="1.0" encoding="utf-8"?>
<!-- Generator: Adobe Illustrator 23.0.2, SVG Export Plug-In . SVG Version: 6.00 Build 0)  -->
<svg version="1.1" id="Layer_1" xmlns="http://www.w3.org/2000/svg" xmlns:xlink="http://www.w3.org/1999/xlink" x="0px" y="0px"
	 viewBox="0 0 1920 1080" style="enable-background:new 0 0 1920 1080;" xml:space="preserve">
<style type="text/css">
	.st0{fill:#33363f;stroke:#f7f7f7;stroke-miterlimit:10;}
	.st1{fill:#33363f;stroke:#f7f7f7;stroke-width:2;stroke-miterlimit:10;}
	.st2{fill-rule:evenodd;clip-rule:evenodd;fill:#f7f7f7;}
	.st3{fill:none;stroke:#f7f7f7;stroke-miterlimit:10;}
	.st4{fill:#f7f7f7;stroke:#f7f7f7;stroke-width:0;stroke-miterlimit:0;}
	.st5{fill-rule:evenodd;clip-rule:evenodd;fill:#f7f7f7;stroke:#f7f7f7;stroke-miterlimit:10;}
</style>
<g>
	<path class="st0" d="M601.51,783.28C552.94,720.98,524,642.62,524,557.5C524,354.54,688.54,190,891.5,190
		c85.54,0,164.26,29.23,226.7,78.24"/>
	<path class="st1" d="M601.51,783.28C552.94,720.98,524,642.62,524,557.5C524,354.54,688.54,190,891.5,190
		c85.54,0,164.26,29.23,226.7,78.24"/>
	<path class="st1" d="M1177.1,326.2c51.21,63.16,81.9,143.64,81.9,231.3c0,202.96-164.54,367.5-367.5,367.5
		c-87.72,0-168.26-30.73-231.44-82.02"/>
	<g>
		<g>
			<g>
				<path class="st2" d="M1255.5,576.5c-17.36,114.86-106.01,204.57-174,236c-12.02,5.56-42.93,18.23-87,42
					c-64.99,35.05-73,48.07-97,58c-13.87,5.74-28.41,8.52-43.19,9.02c12.55,1.31,25.29,1.98,38.19,1.98
					c201.14,0,364.29-162.71,364.99-363.68C1257.01,565.33,1256.35,570.89,1255.5,576.5z"/>
			</g>
			<g>
				<path class="st3" d="M1255.5,576.5c-17.36,114.86-106.01,204.57-174,236c-12.02,5.56-42.93,18.23-87,42
					c-64.99,35.05-73,48.07-97,58c-13.87,5.74-28.41,8.52-43.19,9.02c12.55,1.31,25.29,1.98,38.19,1.98
					c201.14,0,364.29-162.71,364.99-363.68C1257.01,565.33,1256.35,570.89,1255.5,576.5z"/>
			</g>
		</g>
		<path class="st4" d="M892.5,925c-9.82,0-19.24-0.5-19.24-0.5c-17.02-0.99-31.39-3.29-42.26-5.5c7.75,0.34,15.51,0.68,23.26,1.02
			c15.28-0.52,29.64-3.51,42.67-8.91c10.8-4.47,18.24-9.52,29.5-17.16c13.48-9.15,31.93-21.67,67.36-40.78
			c35.68-19.24,62.27-31.01,78.16-38.04c3.71-1.64,6.63-2.94,8.93-4c36.34-16.8,74.77-48.25,105.45-86.29
			c25.4-31.5,57.76-82.84,67.7-148.57v0c0.83-5.5,1.5-11.08,1.98-16.59c0.67-7.56,1.34-15.13,2-22.69
			c2.86,47.34-3.59,84.98-9.57,109.33c-5.85,23.82-13.28,43.2-18.6,55.68c-18.53,43.49-44.98,82.55-78.61,116.07
			C1082.04,887.03,990.16,925,892.5,925z M871.32,921.39c7.05,0.41,14.13,0.61,21.18,0.61c96.86,0,187.99-37.66,256.6-106.04
			c61.44-61.23,98.3-140.6,105.56-226.06c-12.07,60.08-42.1,107.18-66.01,136.83c-30.96,38.39-69.79,70.15-106.53,87.13
			c-2.31,1.07-5.25,2.37-8.97,4.02c-15.85,7.01-42.37,18.75-77.95,37.94c-35.29,19.03-53.68,31.51-67.1,40.62
			c-11.42,7.75-18.96,12.86-30.04,17.45C889.66,917.37,880.71,919.88,871.32,921.39z"/>
	</g>
	<g id="Sofia_x5F_Press_x5F_67_3_">
		<path class="st5" d="M896.74,862.45c-0.56-202.1-1.11-404.19-1.67-606.29c7.71,0.15,15.42,0.29,23.13,0.44
			c0.35,80.86,0.89,211.68,1.19,292.54c0.4,105.4,0.87,240.01,1.2,345.41C912.65,883.85,904.69,873.15,896.74,862.45z"/>
		<path class="st5" d="M974.43,677.32c-0.79-106.4-1.59-212.79-2.38-319.19c4.17-0.53,7.7-1.24,10.44-1.89
			c2.51-0.59,4.8-1.8,8.95-2.83c1.88-0.47,3.44-0.76,4.47-0.94c-0.49,85.38,0.08,138.45,0.74,171.85c0.17,8.55,0.9,43.85,1.35,88.72
			c0.15,14.93,0.28,31.27,0.35,48.97c0.08,21.05,0.07,38.44,0.05,50.23C990.41,700.6,982.42,688.96,974.43,677.32z"/>
		<path class="st5" d="M954.16,611.19"/>
		<path class="st5" d="M896.74,267.49"/>
		<path class="st5" d="M932.53,580.97"/>
		<path class="st5" d="M1025,660.29"/>
		<path class="st5" d="M975.14,367.22c-26.63-31.35-53.26-62.71-79.89-94.06c-0.12-15.24-0.24-30.47-0.36-45.71
			c33.68,41.67,67.35,83.35,101.03,125.02C988.99,357.39,982.07,362.3,975.14,367.22z"/>
		<path class="st5" d="M992.93,365.69"/>
		<path class="st5" d="M901.21,232.55"/>
		<path class="st5" d="M888.53,265.6"/>
		<path class="st5" d="M886.3,279.76"/>
		<path class="st5" d="M983.24,284.49"/>
		<path class="st5" d="M881.08,367.78c-7.71,11.58-15.41,23.15-23.12,34.73c-0.5-45.63-0.99-91.26-1.49-136.88
			c7.95-12.6,15.91-25.2,23.86-37.8C880.58,274.48,880.83,321.13,881.08,367.78z"/>
		<rect x="779.66" y="367.58" class="st5" width="23.86" height="155.8"/>
		<path class="st5" d="M803.14,380.33c-7.83-4.25-15.65-8.5-23.48-12.76c27.66-37.68,55.31-75.36,82.97-113.04l17.62,20.73
			L803.14,380.33z"/>
		<path class="st5" d="M880.33,577.19c-7.95-0.94-15.91-1.89-23.86-2.83V424.23h23.86C880.33,475.22,880.33,526.21,880.33,577.19z"
			/>
		<path class="st5" d="M779.83,712.76c0.56-15.01,1.12-30.02,1.68-45.04l81.39-110.9l17.49,20.58
			C846.86,622.52,813.35,667.64,779.83,712.76z"/>
		<path class="st5" d="M778.91,569.64c0.19-15.34,0.38-30.69,0.57-46.03c33.61-46.35,67.23-92.69,100.84-139.04
			c0.07,15.54,0.13,31.07,0.2,46.61C846.66,477.33,812.79,523.49,778.91,569.64z"/>
		<path class="st5" d="M764,470.5"/>
		<path class="st5" d="M889.28,242.94"/>
		<path class="st5" d="M803.52,677.09c-7.95,11.71-15.91,23.42-23.86,35.13c0-42.59,0-85.19,0-127.78
			c7.95-12.17,15.91-24.34,23.86-36.51C803.52,590.98,803.52,634.03,803.52,677.09z"/>
		<path class="st5" d="M791.59,692.39"/>
		<path class="st5" d="M838.57,677.28"/>
		<path class="st5" d="M845.28,382.68"/>
		<path class="st5" d="M907.18,252.38"/>
		<path class="st5" d="M898.23,248.61"/>
		<path class="st5" d="M838.57,309.98"/>
		<path class="st5" d="M779.67,712.57c0.48-14.77,0.96-29.54,1.43-44.31l79.64-108.51l17.32,20.38
			C845.27,624.28,812.47,668.43,779.67,712.57z"/>
		<path class="st5" d="M996.85,710.28c0.15-15.27,0.3-30.53,0.46-45.8c-27.71-37.08-55.43-74.16-83.14-111.24l-17.83,21.08
			C929.85,619.64,963.35,664.96,996.85,710.28z"/>
		<path class="st5" d="M810.98,678.23"/>
		<path class="st5" d="M766.24,547.92"/>
		<path class="st5" d="M854.98,387.41"/>
		<path class="st5" d="M1006.36,685.78"/>
		<path class="st5" d="M1004.87,735.82"/>
		<path class="st5" d="M934.02,225"/>
		<path class="st5" d="M957.89,328.86"/>
		<path class="st5" d="M999.65,359.08"/>
	</g>
</g>
</svg>
