<?xml version="1.0" encoding="utf-8"?>
<!-- Generator: Adobe Illustrator 23.1.1, SVG Export Plug-In . SVG Version: 6.00 Build 0)  -->
<svg version="1.1" id="Layer_1" xmlns="http://www.w3.org/2000/svg" xmlns:xlink="http://www.w3.org/1999/xlink" x="0px" y="0px"
	 viewBox="0 0 360 360" style="enable-background:new 0 0 360 360;" xml:space="preserve">
<style type="text/css">
	.st0{fill:#231F20;}
</style>
<g>
	<g>
		<path class="st0" d="M179.17,222.07c-0.4,0-0.8-0.12-1.14-0.36l-60.74-43.03c-0.73-0.52-1.02-1.46-0.7-2.3l29.91-79.23
			c0.25-0.67,0.85-1.15,1.56-1.25c0.71-0.1,1.42,0.19,1.85,0.77l28.63,38.09l28.91-38.39c0.43-0.57,1.14-0.87,1.86-0.76
			c0.71,0.1,1.31,0.59,1.56,1.26l29.43,79.23c0.31,0.82,0.03,1.76-0.68,2.27l-59.29,43.32
			C179.98,221.94,179.57,222.07,179.17,222.07z M139.22,191.14l39.94,28.29l58.64-42.85l-28.94-77.92L139.22,191.14z M119.09,176.88
			l18.08,12.81l39.8-52.84L148.5,98.96L119.09,176.88z"/>
	</g>
	<g>
		<g>
			<path class="st0" d="M109.72,253.25c0.96,2.15,3.01,3.55,5.57,3.55c3.24,0,4.75-2.08,4.75-4.37c0-6.08-11.31-4.44-11.31-12.16
				c0-3.42,2.36-6.08,6.39-6.08c3.42,0,5.6,1.81,6.66,4.51l-1.84,0.99c-0.65-1.84-2.25-3.48-4.88-3.48c-2.46,0-4.2,1.78-4.2,4
				c0,6.01,11.27,4.24,11.27,12.16c0,3.59-2.46,6.42-6.83,6.42c-3.45,0-6.22-1.84-7.38-4.41L109.72,253.25z"/>
		</g>
		<g>
			<path class="st0" d="M135.72,258.44c-0.07-0.1-0.41-1.4-0.51-2.97c-0.79,1.67-2.22,3.31-4.82,3.31c-3.21,0-5.16-2.08-5.16-5.12
				c0-3.62,3.18-5.77,9.94-5.77v-1.43c0-3.04-1.4-4.51-3.52-4.51c-1.88,0-3.21,1.13-4.03,2.8l-1.54-1.23
				c1.44-2.36,3.55-3.45,5.84-3.45c3.04,0,5.33,2.12,5.33,6.52v8.91c0,1.71,0.44,2.73,0.55,2.94H135.72z M135.18,249.59
				c-0.31,0-0.61,0-0.92,0c-4.47,0-7,1.4-7,4.07c0,2.19,1.57,3.31,3.35,3.31c3.01,0,4.58-2.73,4.58-5.87V249.59z"/>
		</g>
		<g>
			<path class="st0" d="M146.25,258.44l-5.7-18h2.22l3.66,12.16c0.31,1.02,0.75,2.94,0.75,2.94h0.07c0,0,0.41-1.91,0.72-2.94
				l3.65-12.16h2.22l-5.67,18H146.25z"/>
		</g>
		<g>
			<path class="st0" d="M161.07,258.44l-5.7-18h2.22l3.66,12.16c0.31,1.02,0.75,2.94,0.75,2.94h0.07c0,0,0.41-1.91,0.72-2.94
				l3.65-12.16h2.22l-5.67,18H161.07z"/>
		</g>
		<g>
			<path class="st0" d="M170.3,240.44h2.29l3.79,12.13c0.51,1.64,0.72,2.46,0.72,2.6h0.07c0,0,0.34-1.3,0.72-2.56l3.52-12.16h2.15
				l-5.77,19.4c-1.13,3.65-2.49,5.74-5.29,5.74c-1.13,0-2.12-0.27-3.04-0.82l0.96-1.78c0.55,0.38,1.23,0.58,1.95,0.58
				c2.36,0,3.04-2.73,3.82-5.16L170.3,240.44z"/>
		</g>
		<g>
			<path class="st0" d="M196.2,258.44v-23.91h5.67c5.4,0,7.65,3.72,7.65,8.61c0,4.85-2.29,8.61-7.79,8.61h-3.45v6.69H196.2z
				 M201.76,249.77c3.96,0,5.7-2.66,5.7-6.63s-1.74-6.63-5.74-6.63h-3.45v13.25H201.76z"/>
		</g>
		<g>
			<path class="st0" d="M212.91,258.44v-24.93h2.08v24.93H212.91z"/>
		</g>
		<g>
			<path class="st0" d="M229.54,258.44c-0.07-0.1-0.41-1.4-0.51-2.97c-0.79,1.67-2.22,3.31-4.82,3.31c-3.21,0-5.16-2.08-5.16-5.12
				c0-3.62,3.18-5.77,9.94-5.77v-1.43c0-3.04-1.4-4.51-3.52-4.51c-1.88,0-3.21,1.13-4.03,2.8l-1.54-1.23
				c1.44-2.36,3.55-3.45,5.84-3.45c3.04,0,5.33,2.12,5.33,6.52v8.91c0,1.71,0.44,2.73,0.55,2.94H229.54z M228.99,249.59
				c-0.31,0-0.61,0-0.92,0c-4.47,0-7,1.4-7,4.07c0,2.19,1.57,3.31,3.35,3.31c3.01,0,4.58-2.73,4.58-5.87V249.59z"/>
		</g>
		<g>
			<path class="st0" d="M246.28,258.44v-10.59c0-3.55-0.85-5.87-3.69-5.87c-2.94,0-4.34,2.7-4.34,6.08v10.38h-2.08v-15.06
				c0-1.64-0.41-2.73-0.51-2.94h1.98c0,0,0.44,1.4,0.48,2.97h0.07c0.96-2.08,2.6-3.31,4.78-3.31c4.2,0,5.4,3.31,5.4,7.24v11.1
				H246.28z"/>
		</g>
	</g>
</g>
</svg>
