<svg id="Layer_1" data-name="Layer 1" xmlns="http://www.w3.org/2000/svg" viewBox="0 0 137.75 164.83"><defs><style>.cls-1{fill:#95cbe3;}.cls-2{fill:#ff8b70;}</style></defs><title>SavvyPlan_logo_final</title><path class="cls-1" d="M142,190l38.54,27.3a.78.78,0,0,0,.93,0L239.37,175a.8.8,0,0,0,.28-.92L211.53,98.39a.8.8,0,0,0-1.39-.2l-68.28,90.68A.81.81,0,0,0,142,190Z" transform="translate(-111.55 -97.87)"/><path class="cls-2" d="M149.61,98.7,121,174.39a.8.8,0,0,0,.28.94l16.38,11.59a.79.79,0,0,0,1.1-.17L177.73,135a.81.81,0,0,0,0-1L151,98.5A.8.8,0,0,0,149.61,98.7Z" transform="translate(-111.55 -97.87)"/><path class="cls-2" d="M113.32,250.6a5.83,5.83,0,0,0,5.46,3.49c3.18,0,4.66-2.05,4.66-4.29,0-6-11.09-4.36-11.09-11.93,0-3.35,2.31-6,6.27-6a6.61,6.61,0,0,1,6.53,4.42l-1.81,1a4.9,4.9,0,0,0-4.79-3.41,3.93,3.93,0,0,0-4.12,3.92c0,5.89,11,4.15,11,11.92,0,3.52-2.41,6.3-6.7,6.3a7.76,7.76,0,0,1-7.23-4.32Z" transform="translate(-111.55 -97.87)"/><path class="cls-2" d="M138.82,255.69a11.84,11.84,0,0,1-.5-2.91,5.08,5.08,0,0,1-4.73,3.25,4.72,4.72,0,0,1-5.06-5c0-3.56,3.12-5.67,9.75-5.67v-1.4c0-3-1.37-4.43-3.45-4.43a4.34,4.34,0,0,0-4,2.75l-1.51-1.2a6.55,6.55,0,0,1,5.73-3.39c3,0,5.23,2.08,5.23,6.4v8.74a6.84,6.84,0,0,0,.53,2.88Zm-.54-8.67h-.9c-4.39,0-6.87,1.37-6.87,4a3.09,3.09,0,0,0,3.28,3.24c3,0,4.49-2.68,4.49-5.76Z" transform="translate(-111.55 -97.87)"/><path class="cls-2" d="M149.14,255.69,143.55,238h2.17L149.31,250c.3,1,.74,2.88.74,2.88h.06s.41-1.88.71-2.88L154.4,238h2.18L151,255.69Z" transform="translate(-111.55 -97.87)"/><path class="cls-2" d="M163.68,255.69,158.09,238h2.18L163.85,250c.3,1,.74,2.88.74,2.88h.06s.41-1.88.71-2.88L168.94,238h2.18l-5.56,17.65Z" transform="translate(-111.55 -97.87)"/><path class="cls-2" d="M172.73,238H175l3.71,11.89a19.93,19.93,0,0,1,.71,2.55h.07s.33-1.27.7-2.51L183.62,238h2.11l-5.66,19c-1.11,3.58-2.45,5.63-5.19,5.63a5.62,5.62,0,0,1-3-.81l.93-1.74a3.38,3.38,0,0,0,1.91.57c2.31,0,3-2.68,3.75-5.06Z" transform="translate(-111.55 -97.87)"/><path class="cls-2" d="M198.13,255.69V232.25h5.56c5.29,0,7.5,3.65,7.5,8.44s-2.24,8.44-7.63,8.44h-3.39v6.56Zm5.46-8.5c3.89,0,5.59-2.62,5.59-6.5s-1.7-6.5-5.62-6.5h-3.39v13Z" transform="translate(-111.55 -97.87)"/><path class="cls-2" d="M214.52,255.69V231.24h2v24.45Z" transform="translate(-111.55 -97.87)"/><path class="cls-2" d="M230.83,255.69a12.4,12.4,0,0,1-.5-2.91,5.07,5.07,0,0,1-4.72,3.25,4.72,4.72,0,0,1-5.06-5c0-3.56,3.11-5.67,9.75-5.67v-1.4c0-3-1.38-4.43-3.45-4.43a4.36,4.36,0,0,0-4,2.75l-1.5-1.2a6.52,6.52,0,0,1,5.72-3.39c3,0,5.23,2.08,5.23,6.4v8.74a6.6,6.6,0,0,0,.54,2.88ZM230.3,247h-.91c-4.39,0-6.87,1.37-6.87,4a3.1,3.1,0,0,0,3.29,3.24c2.95,0,4.49-2.68,4.49-5.76Z" transform="translate(-111.55 -97.87)"/><path class="cls-2" d="M247.25,255.69V245.31c0-3.48-.84-5.76-3.62-5.76s-4.25,2.64-4.25,6v10.18h-2V240.92a7.43,7.43,0,0,0-.5-2.88h1.95a11.73,11.73,0,0,1,.46,2.92h.07a5,5,0,0,1,4.69-3.25c4.12,0,5.29,3.25,5.29,7.1v10.88Z" transform="translate(-111.55 -97.87)"/></svg>