<svg version="1" xmlns="http://www.w3.org/2000/svg" width="666.667" height="666.667" viewBox="0 0 500.000000 500.000000"><path d="M203.5 145.7c-2.1 5.4-4.8 12.5-6.1 15.8-4.4 11.4-30.4 80.7-30.4 81 0 .2 5.5 4.2 12.1 8.9l12.1 8.6 2.7-2.8c1.4-1.5 2.5-2.9 2.4-3.1-.4-.7 17-23.1 18-23.1.6 0 .8-.3.4-.6-.3-.3 6.1-9.4 14.2-20.2 8.1-10.9 15.4-20.6 16.1-21.8 1.2-1.9-.2-4-17.4-27-10.3-13.7-19.1-25-19.5-25.2-.5-.2-2.5 4.1-4.6 9.5zM284.9 144.2c-3.5 4.6-12.5 16.4-19.9 26.3-7.4 9.9-15 19.6-16.9 21.5-1.9 1.9-3.3 3.5-3.1 3.6 1 .1-15.2 21.4-16.3 21.4-.5 0-.7.3-.4.7 1 .9-2.3 4.3-4.2 4.3-1.3 0-1.4.2-.2.9 1.1.7 1 1.2-.8 2.2-1.1.8-2.1 1.8-2.1 2.4 0 .5-1 1.8-2.3 3-1.3 1.1-1.6 1.5-.7 1 1.3-.9 1.3-.8.1.8-.9 1.1-1.7 1.4-2.5.8-.8-.7-1.2-.4-1.3 1.1-.1 1.1-1 2.7-2 3.5-1 .8-1.2 1.1-.4.7 1.7-.9 1.3 0-4.5 8.1-2.3 3.3-5.6 6.8-7.2 7.7-4 2.4-5.4 8.6-2.4 10.6 1.1.7 13.3 9.4 27.2 19.3 24.2 17.2 25.4 17.9 27.6 16.5 2.2-1.5 40.9-29.7 42.9-31.3.6-.5 9-6.6 18.8-13.7 15.2-11.1 17.7-13.2 17.1-15-.7-2.5-14.2-39.3-15.4-42.1-.5-1.1-2.5-6.5-4.5-12s-4.2-11.6-5-13.5c-2.9-7.3-12.6-33.6-12.9-34.9-.6-3.3-2.7-1.8-8.7 6.1z"/></svg>