<?xml version="1.0" standalone="no"?>
<!DOCTYPE svg PUBLIC "-//W3C//DTD SVG 20010904//EN"
 "http://www.w3.org/TR/2001/REC-SVG-20010904/DTD/svg10.dtd">
<svg version="1.0" xmlns="http://www.w3.org/2000/svg"
 width="507.000000pt" height="507.000000pt" viewBox="0 0 507.000000 507.000000"
 preserveAspectRatio="xMidYMid meet">
<metadata>
Created by potrace 1.11, written by Peter Selinger 2001-2013
</metadata>
<g transform="translate(0.000000,507.000000) scale(0.100000,-0.100000)"
fill="#000000" stroke="none">
<path d="M3728 4853 c-9 -3 -47 -46 -85 -96 -37 -51 -70 -94 -73 -97 -3 -3
-23 -30 -45 -60 -22 -30 -50 -66 -62 -80 -13 -14 -23 -30 -23 -37 0 -6 -4 -13
-9 -15 -5 -1 -51 -59 -102 -128 -51 -69 -97 -129 -102 -135 -4 -5 -41 -55 -82
-110 -41 -55 -78 -104 -82 -110 -5 -5 -55 -73 -113 -150 -58 -77 -107 -142
-110 -145 -3 -3 -17 -21 -30 -40 -13 -19 -27 -37 -30 -40 -3 -3 -45 -59 -94
-125 -49 -66 -92 -122 -95 -125 -3 -3 -21 -26 -39 -52 -17 -25 -41 -57 -52
-70 -10 -13 -78 -102 -150 -198 -390 -521 -515 -685 -522 -688 -4 -2 -8 -10
-8 -17 0 -7 -4 -15 -8 -17 -4 -1 -38 -43 -75 -93 -37 -49 -74 -99 -83 -110 -8
-11 -56 -75 -106 -143 -50 -67 -95 -122 -100 -122 -4 0 -8 -5 -8 -11 0 -6 -18
-34 -40 -63 -21 -28 -52 -68 -67 -89 -15 -21 -33 -44 -40 -51 -6 -7 -22 -29
-35 -48 -13 -18 -29 -40 -36 -48 -7 -8 -26 -33 -42 -55 -16 -22 -36 -47 -43
-55 -20 -23 -83 -113 -96 -137 -10 -19 -6 -25 42 -60 28 -21 54 -41 55 -45 2
-5 8 -8 13 -8 9 0 67 -37 79 -51 3 -3 34 -25 70 -50 36 -24 67 -46 70 -49 3
-3 28 -21 55 -39 28 -19 52 -37 55 -40 3 -4 34 -26 70 -50 36 -25 66 -48 68
-53 2 -4 8 -8 14 -8 6 0 27 -13 48 -30 21 -17 43 -30 49 -30 6 0 11 -3 11 -8
0 -4 18 -18 40 -32 22 -14 40 -28 40 -32 0 -5 6 -8 14 -8 8 0 16 -3 18 -8 2
-6 147 -110 241 -175 10 -6 54 -38 98 -70 43 -31 83 -57 88 -57 5 0 11 -4 13
-8 2 -5 28 -26 58 -47 101 -70 114 -80 132 -96 10 -8 35 -25 57 -37 32 -18 42
-20 53 -10 8 7 21 18 30 23 21 12 254 181 289 209 14 12 36 28 48 36 13 8 44
31 70 50 26 19 75 55 109 80 35 25 75 55 90 67 15 13 30 23 33 23 3 0 15 8 27
17 11 10 33 27 48 38 88 63 158 115 227 167 43 32 82 58 87 58 4 0 10 3 12 8
2 4 86 68 188 142 102 74 205 149 230 167 25 18 52 39 60 47 8 7 29 22 45 32
17 10 39 27 49 36 11 10 23 18 27 18 4 0 14 6 21 13 7 7 56 44 108 82 52 37
170 124 263 192 93 69 175 127 183 130 30 11 27 55 -11 153 -8 19 -37 98 -65
175 -54 145 -89 240 -139 373 -17 42 -53 140 -81 217 -28 77 -56 154 -63 170
-6 17 -12 32 -13 35 -1 7 -13 39 -29 75 -7 17 -22 57 -33 90 -11 33 -46 128
-78 210 -31 83 -57 156 -57 163 0 6 -4 12 -9 12 -4 0 -8 9 -8 20 0 11 -4 28
-9 38 -15 30 -29 65 -52 132 -12 36 -28 77 -36 93 -7 15 -11 27 -7 27 4 0 2 6
-3 13 -5 6 -20 41 -32 77 -12 36 -25 72 -28 80 -4 8 -7 17 -8 20 -6 19 -18 49
-27 70 -6 14 -13 30 -14 35 -6 24 -53 145 -63 164 -7 12 -9 21 -6 21 3 0 -1
14 -10 30 -9 17 -13 30 -9 30 4 0 2 6 -3 13 -5 6 -20 41 -32 77 -12 36 -26 74
-31 85 -5 11 -25 65 -45 120 -82 222 -78 214 -107 208z"/>
<path d="M1351 4837 c-6 -6 -11 -18 -11 -27 0 -9 -4 -20 -9 -25 -6 -8 -63
-155 -67 -175 0 -3 -6 -18 -13 -35 -6 -16 -28 -73 -48 -125 -19 -52 -41 -108
-48 -125 -7 -16 -18 -48 -25 -70 -7 -22 -16 -44 -21 -49 -5 -6 -9 -16 -9 -24
0 -8 -6 -28 -14 -45 -24 -56 -50 -132 -48 -139 1 -5 -2 -8 -7 -8 -5 0 -12 -15
-16 -32 -4 -18 -9 -35 -10 -38 -5 -14 -26 -67 -32 -80 -3 -8 -7 -19 -8 -25 -3
-12 -41 -111 -54 -140 -9 -20 -22 -58 -22 -62 0 -2 -6 -18 -42 -103 -6 -14
-11 -27 -11 -30 -1 -5 -31 -88 -43 -120 -4 -8 -7 -17 -8 -20 -1 -3 -5 -12 -8
-20 -10 -24 -98 -254 -101 -265 -2 -5 -8 -23 -15 -40 -6 -16 -23 -61 -38 -100
-34 -94 -92 -245 -102 -270 -16 -37 -122 -320 -126 -335 -2 -8 -4 -16 -5 -17
-2 -2 -3 -6 -4 -10 -1 -5 -7 -18 -14 -30 -6 -12 -13 -30 -15 -40 -2 -10 -8
-27 -12 -38 -45 -111 -53 -135 -47 -135 4 0 3 -4 -3 -8 -8 -6 -40 -80 -49
-117 -2 -5 -8 -21 -13 -35 -6 -14 -9 -29 -6 -35 4 -11 127 -103 128 -95 0 2
12 -6 27 -19 26 -23 71 -55 228 -163 41 -29 80 -56 85 -61 52 -44 200 -137
213 -132 10 3 30 24 47 48 39 55 39 56 75 98 16 20 30 40 30 43 0 4 9 16 20
28 11 12 32 40 47 62 15 23 30 43 34 46 6 6 128 165 149 196 36 52 135 179
142 182 5 2 8 10 8 17 0 7 4 15 8 17 5 2 42 48 82 103 41 55 78 102 82 103 5
2 8 10 8 18 0 8 4 14 9 14 6 0 16 11 23 24 11 19 91 128 145 196 7 8 78 103
158 210 80 107 151 202 158 210 7 8 30 40 52 70 22 30 44 60 50 67 20 24 31
39 90 118 33 44 62 82 66 85 14 11 59 91 59 104 0 8 -6 19 -13 23 -7 4 -20 19
-29 33 -8 14 -24 35 -34 46 -11 12 -37 47 -59 79 -22 31 -50 67 -62 80 -13 13
-23 27 -23 30 0 5 -88 124 -100 135 -3 3 -23 30 -45 60 -22 30 -42 57 -45 60
-3 3 -17 21 -30 40 -13 19 -27 37 -30 40 -3 3 -25 32 -49 65 -25 33 -48 62
-53 63 -4 2 -8 8 -8 13 0 5 -31 49 -69 98 -38 49 -67 92 -64 95 4 3 2 6 -4 6
-6 0 -50 54 -99 121 -49 67 -93 126 -99 133 -13 14 -105 137 -124 164 -17 25
-45 34 -60 19z"/>
</g>
</svg>
