<?xml version="1.0" encoding="utf-8"?>
<!-- Generator: Adobe Illustrator 23.1.1, SVG Export Plug-In . SVG Version: 6.00 Build 0)  -->
<svg version="1.1" id="Layer_1" xmlns="http://www.w3.org/2000/svg" xmlns:xlink="http://www.w3.org/1999/xlink" x="0px" y="0px"
	 viewBox="0 0 360 360" style="enable-background:new 0 0 360 360;" xml:space="preserve">
<style type="text/css">
	.st0{fill:#FFFFFF;}
</style>
<g>
	<path class="st0" d="M179.17,243.09c-0.4,0-0.8-0.12-1.14-0.36l-60.74-43.03c-0.73-0.52-1.02-1.46-0.7-2.3l29.91-79.23
		c0.25-0.67,0.85-1.15,1.56-1.25c0.71-0.1,1.42,0.19,1.85,0.77l28.63,38.09l28.91-38.39c0.43-0.57,1.14-0.87,1.86-0.76
		c0.71,0.1,1.31,0.59,1.56,1.26l29.43,79.23c0.31,0.82,0.03,1.76-0.68,2.27l-59.29,43.32C179.98,242.96,179.57,243.09,179.17,243.09
		z M139.22,212.16l39.94,28.29l58.64-42.85l-28.94-77.92L139.22,212.16z M119.09,197.89l18.08,12.81l39.8-52.84l-28.47-37.88
		L119.09,197.89z"/>
</g>
</svg>
